<svg width="48" height="48" viewBox="0 0 48 48" fill="none" xmlns="http://www.w3.org/2000/svg">
    <rect width="48" height="48" fill="white" />
    <path fill-rule="evenodd" clip-rule="evenodd"
        d="M36.6659 6.65641H34.0518V5.75537C34.0518 5.49079 34.0518 4.74975 34.0518 4.74975C34.0518 4.74975 33.334 4.74975 33.042 4.74975H30.2572V1.88347C30.2572 1.6063 30.2572 0.798218 30.2572 0.798218C30.2572 0.798218 29.4648 0.863716 29.188 0.879405C29.0457 0.887772 25.6618 1.10061 21.6582 2.69874C17.0964 4.51912 13.5969 7.41521 11.4192 11.1428L10.3353 13.4098C10.3285 13.4568 10.3237 13.5039 10.3237 13.5515V42.3105V47.0422C10.3237 47.255 10.3237 47.255 10.3237 47.255C10.3237 47.255 11.4044 47.255 12.1774 47.255C12.1974 47.2372 12.2163 47.2189 12.2347 47.2001L12.2349 47.2C12.28 47.1738 12.3251 47.1477 12.3702 47.1227C12.3733 47.1211 12.3765 47.119 12.3796 47.1175C21.6608 41.8958 36.4301 43.1033 36.5782 43.1164C36.8602 43.1409 37.6763 43.2183 37.6763 43.2183C37.6763 43.2183 37.6763 42.3963 37.6763 42.1144V7.66204C37.676 7.40638 37.6763 6.65641 37.6763 6.65641C37.6763 6.65641 36.9669 6.65641 36.6659 6.65641ZM32.0322 37.3341V6.76153H30.2572V34.5907C30.2572 34.84 30.2572 35.5943 30.2572 35.5943C30.2572 35.5943 29.5959 35.5755 29.3157 35.5943C23.7083 35.9719 19.1333 37.991 15.7179 41.5962C15.5126 41.8132 15.3193 42.0286 15.135 42.2425C18.5751 40.1711 22.2468 38.9987 25.0973 38.3434C28.1462 37.6421 30.6952 37.4105 32.0322 37.3341ZM28.2376 3.00937C26.9856 3.18874 24.7738 3.61547 22.3519 4.5892C17.6766 6.46868 14.3667 9.43484 12.503 13.4103C12.5098 13.4568 12.5146 13.5044 12.5146 13.552V42.311C12.9951 41.6443 13.5685 40.9341 14.2486 40.2166C16.7361 37.5909 21.153 34.3831 28.2376 33.6672V3.00937ZM27.8301 41.1354C31.2991 40.8907 34.1679 40.9676 35.6561 41.0429V8.66767H34.0518V38.3021C34.0518 38.563 34.0518 39.3078 34.0518 39.3078C34.0518 39.3078 33.3408 39.3064 33.0472 39.3077L33.045 39.3078C32.942 39.3091 29.6738 39.3505 25.5042 40.3144C23.6369 40.7464 21.3956 41.4131 19.1234 42.4313C21.7422 41.7933 24.6493 41.3598 27.8301 41.1354Z"
        fill="#231F20" />
    <path
        d="M14.5811 16.0709V27.3525H25.7562V24.549H18.3738V22.9615H25.7562V20.2931H18.3738V18.9082H25.7562V16.0709H14.5811Z"
        fill="#231F20" />
</svg>
    