<svg width="514" height="873" viewBox="0 0 514 873" fill="none" xmlns="http://www.w3.org/2000/svg">
    <path fill-rule="evenodd" clip-rule="evenodd"
        d="M495.014 110.085H445.89V93.1532C445.89 88.1812 445.89 74.2558 445.89 74.2558C445.89 74.2558 432.401 74.2558 426.914 74.2558H374.583V20.3936C374.583 15.1853 374.583 9.64589e-06 374.583 9.64589e-06C374.583 9.64589e-06 359.692 1.23083 354.492 1.52564C351.818 1.68287 288.227 5.68247 212.993 35.714C127.269 69.922 61.5078 124.344 20.5848 194.392L0.216979 236.992C0.0886935 237.876 -7.74648e-05 238.761 -7.74648e-05 239.655V780.085V869.001C-7.74648e-05 873 -7.74648e-05 873 -7.74648e-05 873C-7.74648e-05 873 20.3069 873 34.8343 873C35.2093 872.666 35.5646 872.322 35.91 871.968L35.9136 871.966C36.761 871.475 37.6084 870.985 38.4559 870.514C38.5151 870.484 38.5743 870.445 38.6335 870.416C213.042 772.292 490.583 794.983 493.366 795.229C498.665 795.69 514 797.145 514 797.145C514 797.145 514 781.697 514 776.4V128.983C513.995 124.178 514 110.085 514 110.085C514 110.085 500.669 110.085 495.014 110.085ZM407.938 686.571V112.06H374.583V635.018C374.583 639.702 374.583 653.876 374.583 653.876C374.583 653.876 362.157 653.523 356.89 653.876C251.518 660.971 165.547 698.914 101.365 766.661C97.5066 770.74 93.8752 774.788 90.4115 778.808C155.057 739.883 224.055 717.85 277.619 705.537C334.914 692.359 382.813 688.006 407.938 686.571ZM336.631 41.5513C313.105 44.922 271.541 52.9409 226.029 71.2389C138.173 106.557 75.9744 162.296 40.9525 237.002C41.0808 237.876 41.1696 238.771 41.1696 239.665V780.095C50.1989 767.565 60.9749 754.22 73.7541 740.738C120.499 691.396 203.5 631.117 336.631 617.663V41.5513ZM328.973 758.004C394.162 753.405 448.071 754.849 476.037 756.264V147.88H445.89V704.761C445.89 709.663 445.89 723.659 445.89 723.659C445.89 723.659 432.53 723.632 427.013 723.658L426.97 723.659C425.035 723.683 363.619 724.461 285.267 742.575C250.176 750.692 208.059 763.222 165.36 782.355C214.572 770.366 269.202 762.219 328.973 758.004Z"
        fill="#231F20" />
    <path d="M80 287V499H290V446.317H151.273V416.485H290V366.341H151.273V340.317H290V287H80Z"
        fill="#231F20" />
</svg>
    